<svg width="2291" height="1059" viewBox="0 0 2291 1059" fill="none" xmlns="http://www.w3.org/2000/svg">
<g opacity="0.4" clip-path="url(#clip0_2319_958)">
<path d="M0.68457 1058.73C104.784 831.631 374.071 737.888 601.719 693.072C744.034 664.976 889.087 654.423 1033.73 645.926C1175.22 637.566 1316.72 644.555 1457.8 621.805C1539.71 608.511 1621.07 588.227 1698.32 557.664C1709.83 553.142 1721.19 548.482 1732.56 543.685C1901.45 471.87 2060.34 372.37 2213.34 271.637" stroke="url(#paint0_linear_2319_958)" stroke-width="1.2" stroke-miterlimit="10"/>
<path d="M5.88965 992.53C113.139 789.83 381.605 708.558 609.116 663.605C750.061 635.784 894.292 623.175 1037.57 616.185C1177.28 609.333 1315.62 617.967 1454.24 602.754C1538.75 593.435 1622.71 575.481 1705.44 551.634C1788.17 527.787 1737.08 543.274 1752.56 537.106C1917.2 470.91 2069.79 372.37 2218.13 276.16" stroke="url(#paint1_linear_2319_958)" stroke-width="1.2" stroke-miterlimit="10"/>
<path d="M11.0947 926.471C121.494 748.029 389.275 679.503 616.65 634.413C756.224 606.729 899.635 592.201 1041.67 586.856C1179.61 581.511 1314.93 592.064 1450.95 584.115C1538.2 579.044 1625.45 565.202 1712.84 545.878C1732.7 541.492 1753.38 538.477 1772.83 530.939C1932.41 469.129 2079.38 372.781 2223.2 280.956" stroke="url(#paint2_linear_2319_958)" stroke-width="1.2" stroke-miterlimit="10"/>
<path d="M16.2998 860.275C129.85 706.228 396.946 650.174 624.046 605.084C762.251 577.674 904.703 561.09 1045.51 557.39C1181.66 553.553 1314.66 553.964 1447.39 565.339C1580.11 576.714 1628.33 555.608 1720.1 540.121C1744.21 536.01 1769.41 533.543 1792.97 524.772C1947.34 466.525 2088.83 373.329 2227.99 285.753" stroke="url(#paint3_linear_2319_958)" stroke-width="1.2" stroke-miterlimit="10"/>
<path d="M21.5049 794.216C138.205 664.428 404.48 620.982 631.58 575.755C768.415 548.619 910.045 529.98 1049.48 527.924C1183.85 525.594 1315.21 526.553 1443.96 546.7C1536.15 561.09 1631.48 546.7 1727.36 534.502C1823.24 522.305 1785.44 528.883 1813.1 518.604C1962.13 463.646 2098.28 373.74 2232.92 290.687" stroke="url(#paint4_linear_2319_958)" stroke-width="1.2" stroke-miterlimit="10"/>
<path d="M26.71 728.02C146.561 622.49 412.15 591.653 638.976 546.426C774.442 519.427 915.25 498.732 1053.32 498.321C1185.91 497.498 1313.29 516.823 1440.26 527.787C1536.69 536.147 1634.35 538.066 1734.48 528.472C1767.36 525.32 1801.32 523.675 1833.1 512.163C1976.51 460.22 2107.73 374.015 2237.72 295.21" stroke="url(#paint5_linear_2319_958)" stroke-width="1.1" stroke-miterlimit="10"/>
<path d="M31.915 661.824C154.916 580.689 419.821 562.324 646.373 517.097C780.469 490.372 920.455 467.621 1057.15 468.854C1187.96 469.54 1312.74 492.564 1436.7 509.011C1536.28 522.305 1637.51 529.705 1741.6 522.716C1778.86 520.249 1817.21 518.741 1852.96 505.996C1990.89 456.794 2116.91 374.426 2242.24 300.144" stroke="url(#paint6_linear_2319_958)" stroke-width="1.1" stroke-miterlimit="10"/>
<path d="M37.1191 595.765C163.271 538.888 427.49 533.132 653.906 487.768C786.632 461.18 925.659 436.51 1061.26 439.388C1190.29 441.718 1312.61 468.718 1433.42 490.372C1536.14 508.737 1640.93 508.737 1749 517.097C1857.07 525.457 1833.37 513.945 1873.23 499.965C2005.55 453.505 2126.5 375.111 2247.31 305.078" stroke="url(#paint7_linear_2319_958)" stroke-width="1.1" stroke-miterlimit="10"/>
<path d="M42.1875 529.569C171.489 497.087 434.887 503.803 661.166 458.439C792.522 432.125 930.727 405.4 1064.96 409.922C1192.07 413.76 1311.92 445.145 1429.72 471.596C1535.6 495.443 1643.94 501.61 1756.12 511.204C1868.3 520.797 1849.26 508.737 1893.23 493.524C2019.93 449.804 2135.95 375.248 2251.96 309.737" stroke="url(#paint8_linear_2319_958)" stroke-width="1.1" stroke-miterlimit="10"/>
<path d="M47.3926 463.51C179.845 455.286 442.558 474.611 668.699 429.247C798.686 403.207 936.069 374.426 1068.93 380.456C1194.26 385.801 1311.51 421.846 1426.29 452.82C1535.32 482.286 1647.09 494.894 1763.38 505.447C1813.51 509.97 1865.29 503.666 1913.37 487.357C2034.45 446.241 2145.4 375.796 2256.89 314.534" stroke="url(#paint9_linear_2319_958)" stroke-width="1.1" stroke-miterlimit="10"/>
<path d="M52.5977 397.313C188.2 413.486 450.228 445.282 676.096 399.78C804.576 373.878 941.274 343.178 1072.77 350.853C1196.32 357.705 1310.83 398.547 1422.73 434.043C1534.64 469.403 1650.11 488.316 1770.64 499.691C1825.02 504.762 1881.18 498.595 1933.5 481.189C2048.97 442.541 2154.85 376.208 2261.83 319.468" stroke="url(#paint10_linear_2319_958)" stroke-width="1.1" stroke-miterlimit="10"/>
<path d="M57.8027 331.255C196.556 371.685 457.762 416.09 683.493 370.588C810.603 344.96 946.343 312.204 1076.6 321.524C1198.37 329.884 1310 375.796 1419.03 415.404C1533.82 457.068 1652.85 482.149 1777.63 493.935C1836.25 499.554 1896.93 493.524 1953.36 474.885C2063.22 438.84 2164.03 376.619 2266.35 324.128" stroke="url(#paint11_linear_2319_958)" stroke-width="1.1" stroke-miterlimit="10"/>
<path d="M63.0068 265.058C204.91 329.884 465.432 386.76 691.025 341.259C816.766 315.905 951.684 280.956 1080.71 292.058C1200.7 301.925 1309.32 353.046 1415.75 396.628C1533.27 444.733 1655.45 482.286 1785.02 488.179C1848.3 491.057 1912.96 488.179 1973.63 468.717C2077.73 435.14 2173.75 377.03 2271.41 329.062" stroke="url(#paint12_linear_2319_958)" stroke-width="1.1" stroke-miterlimit="10"/>
<path d="M68.2119 198.862C213.266 287.946 473.102 357.568 698.422 311.793C822.793 286.576 956.889 249.709 1084.55 262.317C1202.75 273.693 1308.09 330.158 1412.18 377.715C1532.17 432.399 1658.19 474.337 1792.28 482.286C1859.81 486.26 1928.98 482.834 1993.77 462.413C2092.25 431.302 2183.2 377.441 2276.34 333.721" stroke="url(#paint13_linear_2319_958)" stroke-width="1.1" stroke-miterlimit="10"/>
<path d="M73.417 132.803C221.621 246.282 480.636 328.376 705.955 282.601C828.957 257.657 962.094 218.735 1088.52 232.988C1204.95 245.871 1306.99 307.818 1408.76 359.076C1530.94 420.749 1661.2 466.799 1799.54 476.529C1871.32 481.6 1944.87 477.489 2013.9 456.109C2106.77 427.465 2192.65 377.715 2281.14 338.381" stroke="url(#paint14_linear_2319_958)" stroke-width="1.1" stroke-miterlimit="10"/>
<path d="M78.6221 66.6072C229.977 204.344 488.306 299.047 713.352 253.272C834.984 228.603 967.299 187.624 1092.35 203.522C1207 217.912 1305.62 285.205 1405.2 340.3C1529.43 408.963 1663.94 458.987 1806.8 470.773C1882.96 477.078 1960.76 472.007 2034.04 449.941C2121.15 423.627 2202.1 378.126 2286.07 343.315" stroke="url(#paint15_linear_2319_958)" stroke-width="1.1" stroke-miterlimit="10"/>
<path d="M83.8271 0.548096C238.332 162.543 495.977 269.855 720.886 223.943C841.147 199.41 972.641 156.513 1096.33 174.056C1209.19 189.954 1304.11 262.728 1401.64 321.661C1527.65 397.587 1666.68 451.449 1813.93 465.154C1894.33 472.555 1976.37 466.525 2054.04 443.911C2135.54 420.064 2211.56 378.811 2290.73 348.249" stroke="url(#paint16_linear_2319_958)" stroke-width="1.1" stroke-miterlimit="10"/>
</g>
<defs>
<linearGradient id="paint0_linear_2319_958" x1="-26.3381" y1="965.552" x2="2229.43" y2="327.603" gradientUnits="userSpaceOnUse">
<stop stop-color="#CEC9BC" stop-opacity="0"/>
<stop offset="1" stop-color="#CEC9BC"/>
</linearGradient>
<linearGradient id="paint1_linear_2319_958" x1="-15.4825" y1="911.952" x2="2248.96" y2="339.292" gradientUnits="userSpaceOnUse">
<stop stop-color="#CEC9BC" stop-opacity="0"/>
<stop offset="1" stop-color="#CEC9BC" stop-opacity="0.9"/>
</linearGradient>
<linearGradient id="paint2_linear_2319_958" x1="-4.88774" y1="858.115" x2="2266.22" y2="350.757" gradientUnits="userSpaceOnUse">
<stop stop-color="#CEC9BC" stop-opacity="0.1"/>
<stop offset="1" stop-color="#CEC9BC" stop-opacity="0.9"/>
</linearGradient>
<linearGradient id="paint3_linear_2319_958" x1="4.48007" y1="803.902" x2="2281.28" y2="365.715" gradientUnits="userSpaceOnUse">
<stop stop-color="#CEC9BC" stop-opacity="0.2"/>
<stop offset="1" stop-color="#CEC9BC" stop-opacity="0.8"/>
</linearGradient>
<linearGradient id="paint4_linear_2319_958" x1="13.5386" y1="746.104" x2="2293.42" y2="372.976" gradientUnits="userSpaceOnUse">
<stop stop-color="#CEC9BC" stop-opacity="0.2"/>
<stop offset="1" stop-color="#CEC9BC" stop-opacity="0.8"/>
</linearGradient>
<linearGradient id="paint5_linear_2319_958" x1="21.3338" y1="688.022" x2="2303.12" y2="383.744" gradientUnits="userSpaceOnUse">
<stop stop-color="#CEC9BC" stop-opacity="0.3"/>
<stop offset="1" stop-color="#CEC9BC" stop-opacity="0.7"/>
</linearGradient>
<linearGradient id="paint6_linear_2319_958" x1="28.6517" y1="629.282" x2="2310.4" y2="393.622" gradientUnits="userSpaceOnUse">
<stop stop-color="#CEC9BC" stop-opacity="0.4"/>
<stop offset="1" stop-color="#CEC9BC" stop-opacity="0.6"/>
</linearGradient>
<linearGradient id="paint7_linear_2319_958" x1="36.6303" y1="571.398" x2="2316.28" y2="400.09" gradientUnits="userSpaceOnUse">
<stop stop-color="#CEC9BC" stop-opacity="0.4"/>
<stop offset="1" stop-color="#CEC9BC" stop-opacity="0.6"/>
</linearGradient>
<linearGradient id="paint8_linear_2319_958" x1="42.9589" y1="512.138" x2="2319.15" y2="408.836" gradientUnits="userSpaceOnUse">
<stop stop-color="#CEC9BC" stop-opacity="0.5"/>
<stop offset="1" stop-color="#CEC9BC" stop-opacity="0.5"/>
</linearGradient>
<linearGradient id="paint9_linear_2319_958" x1="48.9547" y1="452.581" x2="2319.95" y2="416.926" gradientUnits="userSpaceOnUse">
<stop stop-color="#CEC9BC" stop-opacity="0.6"/>
<stop offset="1" stop-color="#CEC9BC" stop-opacity="0.4"/>
</linearGradient>
<linearGradient id="paint10_linear_2319_958" x1="54.3572" y1="392.897" x2="2318.84" y2="424.499" gradientUnits="userSpaceOnUse">
<stop stop-color="#CEC9BC" stop-opacity="0.6"/>
<stop offset="1" stop-color="#CEC9BC" stop-opacity="0.4"/>
</linearGradient>
<linearGradient id="paint11_linear_2319_958" x1="59.0328" y1="333.231" x2="2315.43" y2="431.69" gradientUnits="userSpaceOnUse">
<stop stop-color="#CEC9BC" stop-opacity="0.7"/>
<stop offset="1" stop-color="#CEC9BC" stop-opacity="0.3"/>
</linearGradient>
<linearGradient id="paint12_linear_2319_958" x1="63.8618" y1="273.248" x2="2310.76" y2="434.214" gradientUnits="userSpaceOnUse">
<stop stop-color="#CEC9BC" stop-opacity="0.8"/>
<stop offset="1" stop-color="#CEC9BC" stop-opacity="0.2"/>
</linearGradient>
<linearGradient id="paint13_linear_2319_958" x1="67.5038" y1="213.976" x2="2303.33" y2="440.951" gradientUnits="userSpaceOnUse">
<stop stop-color="#CEC9BC" stop-opacity="0.8"/>
<stop offset="1" stop-color="#CEC9BC" stop-opacity="0.2"/>
</linearGradient>
<linearGradient id="paint14_linear_2319_958" x1="71.1618" y1="154.327" x2="2294.9" y2="442.973" gradientUnits="userSpaceOnUse">
<stop stop-color="#CEC9BC" stop-opacity="0.9"/>
<stop offset="1" stop-color="#CEC9BC" stop-opacity="0.1"/>
</linearGradient>
<linearGradient id="paint15_linear_2319_958" x1="73.7959" y1="95.147" x2="2283.68" y2="448.908" gradientUnits="userSpaceOnUse">
<stop stop-color="#CEC9BC"/>
<stop offset="1" stop-color="#CEC9BC" stop-opacity="0"/>
</linearGradient>
<linearGradient id="paint16_linear_2319_958" x1="76.2303" y1="37.5821" x2="2271.49" y2="452.141" gradientUnits="userSpaceOnUse">
<stop stop-color="#CEC9BC"/>
<stop offset="1" stop-color="#CEC9BC" stop-opacity="0"/>
</linearGradient>
<clipPath id="clip0_2319_958">
<rect width="2291" height="1059" fill="white"/>
</clipPath>
</defs>
</svg>
